<svg width="32" height="32" viewBox="0 0 32 32" fill="none" xmlns="http://www.w3.org/2000/svg">
<g clip-path="url(#clip0)">
<path d="M16.0053 7.78394C11.468 7.78394 7.79468 11.4613 7.79468 15.9946C7.79468 20.5319 11.472 24.2053 16.0053 24.2053C20.5427 24.2053 24.216 20.5279 24.216 15.9946C24.216 11.4573 20.5387 7.78394 16.0053 7.78394ZM16.0053 21.3239C13.06 21.3239 10.676 18.9386 10.676 15.9946C10.676 13.0506 13.0613 10.6653 16.0053 10.6653C18.9493 10.6653 21.3347 13.0506 21.3347 15.9946C21.336 18.9386 18.9507 21.3239 16.0053 21.3239Z" fill="white"/>
<path d="M22.5973 0.101248C19.6533 -0.0360854 12.3613 -0.0294187 9.41467 0.101248C6.82533 0.222581 4.54133 0.847914 2.7 2.68925C-0.377336 5.76658 0.0159978 9.91325 0.0159978 15.9946C0.0159978 22.2186 -0.330669 26.2692 2.7 29.2999C5.78933 32.3879 9.996 31.9839 16.0053 31.9839C22.1707 31.9839 24.2987 31.9879 26.4787 31.1439C29.4427 29.9932 31.68 27.3439 31.8987 22.5852C32.0373 19.6399 32.0293 12.3492 31.8987 9.40258C31.6347 3.78525 28.62 0.378581 22.5973 0.101248ZM27.2573 27.2639C25.24 29.2812 22.4413 29.1012 15.9667 29.1012C9.3 29.1012 6.62666 29.1999 4.676 27.2439C2.42933 25.0079 2.836 21.4172 2.836 15.9732C2.836 8.60658 2.08 3.30125 9.47333 2.92258C11.172 2.86258 11.672 2.84258 15.948 2.84258L16.008 2.88258C23.1133 2.88258 28.688 2.13858 29.0227 9.53058C29.0987 11.2172 29.116 11.7239 29.116 15.9932C29.1147 22.5826 29.24 25.2719 27.2573 27.2639Z" fill="white"/>
<path d="M24.5413 9.37859C25.601 9.37859 26.46 8.51957 26.46 7.45992C26.46 6.40027 25.601 5.54126 24.5413 5.54126C23.4817 5.54126 22.6227 6.40027 22.6227 7.45992C22.6227 8.51957 23.4817 9.37859 24.5413 9.37859Z" fill="white"/>
</g>
<defs>
<clipPath id="clip0">
<rect width="32" height="32" fill="white"/>
</clipPath>
</defs>
</svg>
