<svg width="32" height="32" viewBox="0 0 32 32" fill="none" xmlns="http://www.w3.org/2000/svg">
<g clip-path="url(#clip0)">
<path d="M31.292 7.90543L31.332 8.16677C30.9454 6.79477 29.9014 5.7361 28.5747 5.35077L28.5467 5.3441C26.052 4.66677 16.0134 4.66677 16.0134 4.66677C16.0134 4.66677 6.00003 4.65343 3.48003 5.3441C2.12803 5.7361 1.08269 6.79477 0.702693 8.13877L0.696026 8.16677C-0.235974 13.0348 -0.242641 18.8841 0.737359 24.0961L0.696026 23.8321C1.08269 25.2041 2.12669 26.2628 3.45336 26.6481L3.48136 26.6548C5.97336 27.3334 16.0147 27.3334 16.0147 27.3334C16.0147 27.3334 26.0267 27.3334 28.548 26.6548C29.9014 26.2628 30.9467 25.2041 31.3267 23.8601L31.3334 23.8321C31.7574 21.5681 32 18.9628 32 16.3014C32 16.2041 32 16.1054 31.9987 16.0068C32 15.9161 32 15.8081 32 15.7001C32 13.0374 31.7574 10.4321 31.292 7.90543ZM12.8107 20.8681V11.1441L21.1654 16.0134L12.8107 20.8681Z" fill="white"/>
</g>
<defs>
<clipPath id="clip0">
<rect width="32" height="32" fill="white"/>
</clipPath>
</defs>
</svg>
